<svg width="23" height="24" fill="none" xmlns="http://www.w3.org/2000/svg"><path d="M4.4385.9736H.1237v4.3796h4.3148V.9736zM12.3491.9736H8.0343v4.3796h4.3148V.9736zM20.2597.9736h-4.3148v4.3796h4.3148V.9736zM4.4385 9.0027H.1237v4.3795h4.3148V9.0027zM4.4385 17.032H.1237v4.3795h4.3148V17.032z" fill="#72BF00"/><path d="M6.596 23.6012h15.8212V7.543H6.596v16.0582zm9.0144-13.2574h4.0473v4.108h-4.0473v-4.108zm0 6.442h4.0473v4.1079h-4.0473v-4.1079zm-6.163-6.5353h4.0474v4.1079H9.4475v-4.1079zm0 6.5353h4.0474v4.1079H9.4475v-4.1079z" fill="#BDCCD4"/><path d="M13.0683 9.7327H8.7534v4.3795h4.3149V9.7327zM19.5406 9.7327h-4.3149v4.3795h4.3149V9.7327zM13.0683 16.302H8.7534v4.3795h4.3149V16.302zM19.5406 16.302h-4.3149v4.3795h4.3149V16.302z" fill="#03755F"/></svg>