<svg width="176" height="58" fill="none" xmlns="http://www.w3.org/2000/svg"><path d="M92.3343 1.3181h4.5971c3.1526 0 5.2536 2.5046 5.2536 6.0636 0 1.9773-.657 3.5591-1.839 4.6137-.9191.7909-2.1012 1.1864-3.6773 1.1864H92.203V1.3181h.1313zm4.203 9.7546c2.2329 0 3.1523-1.3182 3.1523-3.691 0-2.3727-1.0508-3.9545-3.0209-3.9545h-1.9702v7.7773h1.8388v-.1318zM108.227 12.259c-.526.6591-1.051 1.1863-2.496 1.1863-1.707 0-3.021-.9227-3.021-2.6363 0-1.8455 1.577-2.5046 3.415-2.7682 1.445-.2637 2.102-.2637 2.102-.9228 0-.659-.526-1.0545-1.445-1.0545-1.051 0-1.576.3955-1.576 1.1864h-1.97c.131-1.45 1.182-2.7682 3.677-2.7682 2.496 0 3.547 1.1864 3.547 3.1636v4.2182c0 .6591.131 1.0546.262 1.1864v.1318h-2.232c-.132-.1318-.132-.5273-.263-.9227zm0-2.1091V8.8317c-.394.2636-1.051.3954-1.576.5273-1.182.2636-1.708.5272-1.708 1.3181 0 .791.526 1.0546 1.314 1.0546 1.313.1318 1.97-.7909 1.97-1.5818zM111.116 4.6137h1.183V1.9773h2.232v2.6364h1.445v1.45h-1.445v4.4818c0 .6591.394.7909.788.7909h.657v1.8454h-1.445c-1.05 0-2.364-.3954-2.364-2.1091V6.1955h-1.182V4.6137h.131zM122.281 12.259c-.526.6591-1.051 1.1863-2.496 1.1863-1.707 0-3.021-.9227-3.021-2.6363 0-1.8455 1.576-2.5046 3.415-2.7682 1.445-.2637 2.102-.2637 2.102-.9228 0-.659-.526-1.0545-1.445-1.0545-1.051 0-1.576.3955-1.576 1.1864h-1.97c0-1.45 1.182-2.7682 3.677-2.7682 2.496 0 3.546 1.1864 3.546 3.1636v4.2182c0 .6591.132 1.0546.263 1.1864v.1318h-2.233c-.131-.1318-.131-.5273-.262-.9227zm0-2.1091V8.8317c-.394.2636-.92.3954-1.577.5273-1.182.2636-1.707.5272-1.707 1.3181 0 .791.525 1.0546 1.313 1.0546 1.314.1318 1.971-.7909 1.971-1.5818zM92.3344 20.2998h2.3641v11.8636h-2.3641V20.2998zM98.6389 24.7815c.6567-.9227 1.4451-1.45 2.6271-1.45 1.707 0 2.889 1.3182 2.889 3.1637v5.5363h-2.233v-5.2727c0-.9227-.525-1.5818-1.444-1.5818-1.0511 0-1.7078.7909-1.7078 1.9773v4.8772h-2.2328v-8.5681h2.2328v1.3181h-.1313zM104.812 23.5953h1.182V20.959h2.233v2.6363h1.445v1.45h-1.445v4.4819c0 .6591.394.7909.788.7909h.657v1.7136h-1.445c-1.051 0-2.364-.3954-2.364-2.1091v-5.0091h-1.051v-1.3182zM110.328 27.8134c0-2.5046 1.708-4.4819 4.203-4.4819 2.759 0 4.203 2.1091 4.203 5.141h-6.173c.132 1.3181.92 2.109 2.233 2.109.919 0 1.445-.3954 1.576-1.0545h2.233c-.263 1.45-1.707 2.7682-3.809 2.7682-2.89.1318-4.466-1.8455-4.466-4.4818zm2.233-.7909h3.809c0-1.0546-.788-1.8455-1.839-1.8455-1.182 0-1.838.6591-1.97 1.8455zM119.785 20.2998h2.233v11.8636h-2.233V20.2998zM123.463 20.2998h2.364v11.8636h-2.233V20.2998h-.131zM127.272 20.2998h2.232v1.9773h-2.232v-1.9773zm0 3.2955h2.232v8.5681h-2.232v-8.5681zM130.687 32.427h2.232c.132.5273.657.9227 1.708.9227 1.313 0 1.839-.659 1.839-1.7136v-.9227c-.526.5273-1.182 1.0545-2.233 1.0545-1.839 0-3.678-1.45-3.678-4.0863 0-2.5046 1.576-4.2182 3.678-4.2182 1.051 0 1.839.3954 2.364 1.1863v-.9227h2.233v7.9091c0 1.1864-.394 1.9773-1.051 2.6364-.657.6591-1.839.9227-3.021.9227-2.364-.1318-3.809-1.1864-4.071-2.7682zm6.041-4.8773c0-1.1863-.656-2.3727-1.97-2.3727-1.182 0-1.97.9227-1.97 2.3727 0 1.45.788 2.241 1.97 2.241 1.314 0 1.97-1.0546 1.97-2.241zM139.881 27.8134c0-2.5046 1.707-4.4819 4.203-4.4819 2.758 0 4.203 2.1091 4.203 5.141h-6.174c.132 1.3181.92 2.109 2.233 2.109.92 0 1.445-.3954 1.576-1.0545h2.233c-.262 1.45-1.707 2.7682-3.809 2.7682-2.889.1318-4.465-1.8455-4.465-4.4818zm2.232-.7909h3.809c0-1.0546-.788-1.8455-1.838-1.8455-1.182 0-1.839.6591-1.971 1.8455zM151.439 24.7815c.656-.9227 1.445-1.45 2.627-1.45 1.707 0 2.889 1.3182 2.889 3.1637v5.5363h-2.233v-5.2727c0-.9227-.525-1.5818-1.444-1.5818-1.051 0-1.708.7909-1.708 1.9773v4.8772h-2.233v-8.5681h2.233v1.3181h-.131zM157.875 27.9452c0-2.5045 1.707-4.4818 4.203-4.4818 2.232 0 3.546 1.3182 3.809 3.1636h-2.233c-.132-.7909-.788-1.3182-1.576-1.3182-1.314 0-2.102 1.0546-2.102 2.6364s.657 2.6364 1.97 2.6364c.92 0 1.576-.5273 1.708-1.45h2.233c-.132 1.8454-1.577 3.2954-3.809 3.2954-2.496 0-4.203-1.9773-4.203-4.4818zM166.675 27.8134c0-2.5046 1.707-4.4819 4.203-4.4819 2.758 0 4.203 2.1091 4.203 5.141h-6.173c.131 1.3181.919 2.109 2.232 2.109.92 0 1.445-.3954 1.576-1.0545h2.233c-.262 1.45-1.707 2.7682-3.809 2.7682-2.889.1318-4.465-1.8455-4.465-4.4818zm2.233-.7909h3.808c-.131-1.0546-.788-1.8455-1.838-1.8455-1.182 0-1.839.6591-1.97 1.8455zM91.809 45.2135c0-3.5591 2.2328-6.1954 5.6477-6.1954 2.8893 0 4.5973 1.7136 4.8593 3.9545h-2.3638c-.2626-1.1864-1.0507-1.9773-2.4955-1.9773-2.2328 0-3.2836 1.8455-3.2836 4.2182 0 2.3727 1.3135 4.2182 3.2836 4.2182 1.4448 0 2.3642-.7909 2.4955-2.1091h2.3638c-.131 1.0546-.525 2.1091-1.313 2.7682-.788.7909-1.9702 1.3182-3.5463 1.3182-3.2836 0-5.6477-2.6364-5.6477-6.1955zM103.499 39.2817h2.232v11.8637h-2.232V39.2817zM106.782 46.9271c0-2.5045 1.839-4.4818 4.466-4.4818 2.627 0 4.465 1.9773 4.465 4.4818 0 2.5046-1.838 4.4818-4.465 4.4818s-4.466-1.9772-4.466-4.4818zm6.567 0c0-1.7136-.788-2.7682-2.101-2.7682-1.445 0-2.102 1.1864-2.102 2.7682 0 1.5818.788 2.7682 2.102 2.7682 1.313 0 2.101-1.1864 2.101-2.7682zM122.018 51.1453v-1.0545c-.525.7909-1.182 1.1864-2.496 1.1864-1.838.1318-2.889-1.1864-2.889-3.0319v-5.6682h2.233v5.2728c0 1.0545.394 1.5818 1.444 1.5818 1.051 0 1.708-.7909 1.708-1.9773v-4.8773h2.233v8.5682h-2.233zM125.302 46.9272c0-2.6364 1.444-4.4818 3.677-4.4818 1.182 0 1.97.5273 2.364 1.3182v-4.35h2.233v11.8636h-2.233v-1.0545c-.525.7909-1.313 1.3181-2.495 1.3181-2.102-.1318-3.546-1.9772-3.546-4.6136zm6.173 0c0-1.5818-.526-2.7682-1.97-2.7682-1.183 0-1.839 1.0546-1.839 2.6364s.656 2.6364 1.839 2.6364c1.182 0 1.97-.9228 1.97-2.5046z" fill="#fff"/><mask id="a" maskUnits="userSpaceOnUse" x="1" y="7" width="51" height="44"><path fill-rule="evenodd" clip-rule="evenodd" d="M51.4741 7.5623H1.9577V50.535h49.5164V7.5623z" fill="#fff"/></mask><g mask="url(#a)"><path fill-rule="evenodd" clip-rule="evenodd" d="M18.1129 19.8213h1.1821c2.1015-7.1181 8.8-12.259 16.9433-12.259 6.4358 0 12.2149 3.4272 15.2358 8.5681h-13.003V50.535H17.1935c-9.4567 0-15.2358-6.8546-15.2358-15.4227 0-8.5682 7.2239-15.291 16.1552-15.291z" fill="#72BF00"/></g><path fill-rule="evenodd" clip-rule="evenodd" d="M70.4001 35.1954c0-8.4363-7.2239-15.4227-16.2866-15.4227h-1.1821c-.394-1.3182-.9194-2.5045-1.5761-3.6909h27.188v40.2045H38.4836v-5.8h16.6806c9.4567 0 15.2359-6.8545 15.2359-15.2909z" fill="#BDCCD4"/><path fill-rule="evenodd" clip-rule="evenodd" d="M51.4866 16.0818c.6567 1.1864 1.1821 2.3727 1.5761 3.6909h1.1821c8.9313 0 16.2866 6.8545 16.2866 15.4227 0 8.5682-5.7791 15.4228-15.2358 15.4228h-16.812V16.0818h13.003z" fill="#03755F"/></svg>