<svg width="48" height="47" fill="none" xmlns="http://www.w3.org/2000/svg"><mask id="a" maskUnits="userSpaceOnUse" x="0" y="0" width="48" height="47"><path d="M.48.0002h47.04V47H.48V.0002z" fill="#fff"/></mask><g mask="url(#a)"><path d="M47.52 23.5002c0 12.9779-10.5311 23.5-23.52 23.5-12.9909 0-23.52-10.5221-23.52-23.5C.48 10.5224 11.009.0002 24 .0002c12.9889 0 23.52 10.5222 23.52 23.5z" fill="#00765F"/></g><path d="M24.735 25.4032v5.7223c1.8796-.188 3.4123-1.0321 3.4123-2.8141 0-1.7214-1.3779-2.3442-3.4123-2.9082zm-1.9071-4.7842v-5.2522c-2.0365.186-3.3183 1.1241-3.3183 2.5634 0 1.4707 1.0623 2.0935 3.3183 2.6888zm0 14.1333c-5.2901-.3133-8.2634-2.9394-8.3888-7.285h4.4139c.2489 2.3774 1.47 3.4702 3.9749 3.6582v-6.1609c-4.2591-.9694-7.7636-2.0328-7.7636-6.5663 0-4.1576 3.2242-6.3783 7.7636-6.5976V9.7366h1.9071v2.0954c4.2884.376 7.0422 2.7514 7.3558 6.8169h-4.2884c-.2196-1.782-1.4073-2.8767-3.0674-3.1901v5.5969c4.3512.9381 7.887 2.1268 7.887 6.7543 0 4.2535-3.285 6.7249-7.887 6.9423v2.9081h-1.9071v-2.9081z" fill="#72BF00"/></svg>