<svg width="39" height="40" fill="none" xmlns="http://www.w3.org/2000/svg"><path fill-rule="evenodd" clip-rule="evenodd" d="M.1355 8.0697h7.4438V.626H.1355v7.4437z" fill="#03755F"/><path fill-rule="evenodd" clip-rule="evenodd" d="M12.2317 8.0697h7.4439V.626h-7.4439v7.4437zM24.3279 8.0697h7.4438V.626h-7.4438v7.4437zM.1355 20.1661h7.4438v-7.4439H.1355v7.4439zM12.2317 20.1661h7.4439v-7.4439h-7.4439v7.4439z" fill="#72BF00"/><path fill-rule="evenodd" clip-rule="evenodd" d="M24.3279 20.1661h7.4438v-7.4439h-7.4438v7.4439zM.1355 32.2623h7.4438v-7.4438H.1355v7.4438zM12.2317 32.2623h7.4439v-7.4438h-7.4439v7.4438z" fill="#03755F"/><mask id="a" maskUnits="userSpaceOnUse" x="23" y="22" width="16" height="18"><path fill-rule="evenodd" clip-rule="evenodd" d="M23.9041 22.9573h14.9602v16.7485H23.9041V22.9573z" fill="#fff"/></mask><g mask="url(#a)"><path fill-rule="evenodd" clip-rule="evenodd" d="M36.5115 28.3001v-2.7652c0-1.4219-1.1434-2.5776-2.5504-2.5776h-5.3789c-1.4052 0-2.5487 1.1556-2.5487 2.5776v.33h1.5942v-.33c0-.5326.4276-.9664.9545-.9664h5.3791c.527 0 .9544.4338.9544.9664v2.7652H23.9041V39.706h14.9606V28.3001h-2.3532z" fill="#BDCCD4"/></g></svg>