<svg width="64" height="64" fill="none" xmlns="http://www.w3.org/2000/svg"><path d="M15.04 32.16l.048-.048c.352-.4.72-.768 1.12-1.12 2.032-1.792 4.688-2.896 7.616-2.896 2.128 0 4.112.576 5.808 1.584h.016l-.048-.096a11.4547 11.4547 0 01-1.104-4.912c0-.416.016-.816.064-1.216.048-.512.144-1.024.272-1.504.016-.08.048-.16.064-.24.112-.416.24-.832.4-1.232.032-.08.064-.16.096-.256.176-.416.368-.816.592-1.2.032-.048.048-.096.08-.144.256-.432.544-.864.848-1.264.32-.4.64-.8 1.008-1.152-.016-.016-.032-.016-.032-.032-2.096-2.032-4.928-3.28-8.08-3.28-6.352 0-11.52 5.152-11.536 11.504v.032c0 2.832 1.024 5.44 2.72 7.456.032-.016.048 0 .048.016zM40.064 51.1999c6.384 0 11.552-5.168 11.552-11.552 0-.384-.016-.752-.064-1.12-.032-.304-.064-.608-.128-.912 0-.032 0-.048-.016-.08-.368-2.032-1.28-3.872-2.56-5.392-.336.4-.704.752-1.088 1.104-2.048 1.824-4.736 2.96-7.712 2.96-2.112 0-4.064-.576-5.76-1.552-.016-.016-.032-.016-.048-.032.736 1.52 1.152 3.216 1.152 5.008 0 .304-.016.608-.048.896 0 .064 0 .128-.016.192-.208 2.192-1.024 4.208-2.288 5.872-.32.416-.656.832-1.04 1.2-.016.016-.032.048-.064.064 2.112 2.08 4.96 3.344 8.128 3.344z" fill="#72BF00"/><path d="M40.064 13.04c-3.168 0-6.016 1.28-8.112 3.328-2.08-2.064-4.944-3.328-8.112-3.328-6.384 0-11.552 5.168-11.552 11.552v.032c.016-6.352 5.184-11.504 11.536-11.504 3.152 0 5.984 1.248 8.08 3.28.016.016.032.016.032.032.56.56 1.056 1.168 1.504 1.824 1.216 1.84 1.936 4.032 1.936 6.4 0 .432-.032.848-.08 1.264.048-.448.08-.88.08-1.344 0-2.352-.704-4.528-1.904-6.352 1.664-1.728 4-2.8 6.576-2.8 5.056 0 9.152 4.112 9.152 9.152 0 2.224-.8 4.256-2.112 5.84C45.136 28.912 42.704 28 40.048 28c-2.112 0-4.096.576-5.792 1.568-.016.032-.016.064-.032.08 1.712-1.008 3.696-1.584 5.824-1.584 2.656 0 5.088.896 7.024 2.384.64.48 1.216 1.04 1.728 1.648l.048.048c-.336.4-.704.752-1.088 1.104.384-.352.752-.704 1.088-1.104 1.28 1.504 2.192 3.36 2.56 5.392-.368-2.064-1.28-3.936-2.576-5.472 1.728-2.016 2.768-4.624 2.768-7.488 0-6.368-5.168-11.536-11.536-11.536zM29.648 34.64c-.016 0-.016.016-.032.016-.352.752-.624 1.536-.816 2.368.208-.832.48-1.632.848-2.384zM33.024 46.624c-.32.416-.656.832-1.04 1.2.384-.368.736-.784 1.04-1.2.016 0 .016 0 0 0zM15.024 32.1279c-1.696 2.016-2.72 4.608-2.72 7.44 0 6.384 5.168 11.552 11.552 11.552 3.136 0 5.968-1.248 8.048-3.28-.56-.56-1.072-1.2-1.504-1.872-1.664 1.696-3.984 2.752-6.544 2.752-5.056 0-9.152-4.112-9.152-9.152 0-2.192.768-4.208 2.064-5.776-.624-.48-1.2-1.024-1.712-1.632l-.032-.032z" fill="#BDCCD4"/><path d="M29.648 29.6801c-1.712-1.008-3.696-1.584-5.808-1.584 2.112 0 4.096.576 5.808 1.584zM35.328 40.752c0-.064 0-.128.016-.192.032-.304.048-.608.048-.912 0-1.792-.416-3.488-1.152-5.008h-.016c.736 1.52 1.152 3.216 1.152 5.008 0 .4-.016.784-.064 1.168.016-.016.016-.048.016-.064z" fill="#BDCCD4"/><path d="M47.072 30.464c-1.936-1.488-4.368-2.384-7.024-2.384-2.128 0-4.112.576-5.824 1.584.016-.032.016-.064.032-.08.064-.128.096-.256.16-.368.048-.096.08-.192.128-.288.096-.24.192-.48.272-.72.048-.176.112-.336.144-.512.048-.192.112-.384.144-.592.064-.272.112-.56.144-.848.016-.112.032-.208.048-.32.048-.416.08-.832.08-1.264 0-2.368-.72-4.56-1.936-6.4-.432-.656-.944-1.28-1.504-1.824-.368.352-.688.752-1.008 1.152-1.28 1.648-2.128 3.648-2.368 5.84-.048.4-.064.816-.064 1.216 0 1.76.4 3.408 1.104 4.912l.048.096h-.016c-1.712-1.008-3.696-1.584-5.824-1.584-2.928 0-5.584 1.104-7.616 2.896-.4.352-.784.72-1.12 1.12l-.048.048c.512.592 1.088 1.136 1.712 1.632 1.952 1.52 4.416 2.432 7.072 2.432 2.112 0 4.096-.576 5.792-1.568.016 0 .016-.016.032-.016a11.296 11.296 0 00-.848 2.368c0 .016 0 .032-.016.032-.064.288-.112.592-.16.88-.08.56-.144 1.12-.144 1.712 0 2.336.688 4.496 1.888 6.32.432.672.944 1.296 1.504 1.872l.048.048c.016-.016.032-.048.064-.064.368-.368.72-.784 1.04-1.2 1.248-1.648 2.064-3.632 2.288-5.792.032-.384.064-.784.064-1.168 0-1.792-.416-3.488-1.152-5.008h.016c.016.016.032.016.048.032 1.696.992 3.664 1.552 5.76 1.552 2.976 0 5.664-1.136 7.712-2.96.384-.352.752-.704 1.088-1.104l-.048-.048c-.496-.592-1.072-1.136-1.712-1.632z" fill="#03755F"/></svg>