<svg width="52" height="38" fill="none" xmlns="http://www.w3.org/2000/svg"><path d="M46.352 6.632c-6.752-6.784-17.68-6.784-24.416 0-6.736 6.7841-6.736 17.7921 0 24.5761 6.736 6.784 17.68 6.784 24.416 0 6.752-6.8 6.752-17.792 0-24.576z" fill="#72BF00"/><path d="M16.864 18.904c0-5.824 2.88-10.976 7.296-14.096L19.424.072.592 18.904l18.832 18.832L24.16 33c-4.416-3.12-7.296-8.272-7.296-14.096z" fill="#BDCCD4"/><path d="M24.112 4.76c-4.432 3.136-7.328 8.304-7.328 14.144 0 5.856 2.896 11.024 7.328 14.144l14.16-14.144L24.112 4.76z" fill="#03755F"/></svg>