<svg width="23" height="24" fill="none" xmlns="http://www.w3.org/2000/svg"><path d="M8.2696 13.0382l1.1535-1.1888-1.1535 1.1888zm1.9274 1.9876l-8.0503 8.2967-1.9274-1.9866 8.0503-8.2977 1.9274 1.9876z" fill="#BDCCD4"/><path d="M9.4225 11.8494l1.9274 1.9866-1.5716 1.6208-1.9274-1.9876 1.5716-1.6198z" fill="#03755F"/><path d="M11.6827 14.1781l-.0038.0049-2.5919-2.6715.0038-.0049 2.5919 2.6715z" fill="#BDCCD4"/><path d="M12.4541 2.9915l7.4633 7.6925-5.8162 5.9958L6.637 8.9873l5.8171-5.9958z" fill="#BDCCD4"/><path d="M11.2364.3015l1.9152 1.974-7.1405 7.3598-1.9142-1.974L11.2364.3015zM22.527 11.939l-7.1404 7.3598-1.9161-1.9739 7.1414-7.3608 1.9151 1.9749z" fill="#72BF00"/></svg>