<svg width="47" height="40" fill="none" xmlns="http://www.w3.org/2000/svg"><path d="M32.7093 25.3546c-2.0677-.8747-3.5219-2.9399-3.5219-5.3498 0-2.8245 1.9976-5.1743 4.6407-5.6897l2.8604-4.2442-9.4012.0109v-4.709H3.2545v15.2983h12.5567c-1.8082-1.3451-2.9863-3.5064-2.9863-5.9507 0-4.0814 3.2691-7.3894 7.3024-7.3894 4.0329 0 7.3025 3.308 7.3025 7.3894 0 4.0322-3.1938 7.3042-7.1606 7.3815l.0031 2.1817c1.9006.0182 3.7139.4005 5.3782 1.0793l7.0588-.0083z" fill="#BDCCD4"/><path d="M3.2547 5.373H1.627V39.176h1.6276V5.3731zM3.4257 3.7198c.9418-.5509 1.2648-1.7702.7204-2.7232-.5434-.953-1.7478-1.2798-2.6906-.729C.5137.8177.1907 2.0364.735 2.9899c.5434.9535 1.7483 1.2804 2.6906.73z" fill="#03755F"/><path d="M29.1875 20.0048c0 2.4098 1.4537 4.4751 3.522 5.3497a5.644 5.644 0 002.207.4475c3.1639 0 5.7286-2.5952 5.7286-5.7972 0-3.2015-2.5647-5.7973-5.7286-5.7973-.3725 0-.7358.0392-1.0883.1076-2.6431.5154-4.6407 2.8652-4.6407 5.6897z" fill="#72BF00"/><mask id="a" maskUnits="userSpaceOnUse" x="30" y="27" width="17" height="13"><path d="M30.3594 27.5044h16.1597v11.7402H30.3594V27.5044z" fill="#fff"/></mask><g mask="url(#a)"><path d="M34.9166 27.5044c-1.6178 0-3.1577.3363-4.5572.9415 2.8068 2.7237 4.5572 6.5533 4.5572 10.7987h11.6025c0-6.4845-5.1949-11.7402-11.6025-11.7402z" fill="#72BF00"/></g><path d="M27.4295 14.7202c0-4.0809-3.2691-7.3889-7.3025-7.3889-4.0328 0-7.3024 3.308-7.3024 7.3889 0 2.4448 1.1786 4.6056 2.9863 5.9507 1.2101.9003 2.6994 1.4381 4.3161 1.4381.048 0 .0945-.0057.1425-.0068 3.9667-.0778 7.16-3.3492 7.16-7.382z" fill="#03755F"/><mask id="b" maskUnits="userSpaceOnUse" x="5" y="24" width="30" height="16"><path d="M5.3376 24.2793h29.5787v14.9656H5.3376V24.2793z" fill="#fff"/></mask><g mask="url(#b)"><path d="M30.3597 28.4458c-1.3505-1.3107-2.945-2.3634-4.7088-3.083-1.6648-.6788-3.4781-1.061-5.3787-1.0793-.0485-.0005-.096-.0042-.145-.0042-8.1678 0-14.7896 6.7001-14.7896 14.9657H34.9163c0-4.2459-1.7504-8.0755-4.5566-10.7992z" fill="#03755F"/></g></svg>