<svg width="147" height="21" fill="none" xmlns="http://www.w3.org/2000/svg"><mask id="a" maskUnits="userSpaceOnUse" x="0" y="0" width="145" height="21"><path d="M0 0h144.038v20.5384H0V0z" fill="#fff"/></mask><g mask="url(#a)"><path fill-rule="evenodd" clip-rule="evenodd" d="M132.845 10.1729c0 .9718 0 1.0254 1.367 1.0254.986 0 3.698 0 3.698-3.4629 0-.9988-.385-3.9634-3.78-3.9634-1.258 0-1.285.664-1.285 1.7448v4.6561zm-2.931-4.3784c0-1.1357 0-1.8852-1.341-1.9675-.601-.0284-.986-.055-.986-.4417 0-.3897.112-.3897 1.013-.3897.276 0 1.616.112 1.942.112.742 0 4.381-.112 5.205-.112 4.846 0 5.253 3.3813 5.253 4.3531 0 3.2405-2.819 3.9049-3.751 4.1003.357.221.687.3867 1.317 1.5511l2.652 4.7665c.548.97.932 1.6641 1.697 1.773.904.1121 1.123.1404 1.123.5001 0 .3043-.272.3318-.464.3318-.356 0-2.134-.109-2.546-.109-.218 0-1.231.109-1.48.109-.49 0-.602-.2499-.901-.8319l-3.313-6.3189c-.602-1.1893-.737-1.3-1.969-1.3-.466 0-.52.1643-.52.6374v4.9874c0 1.1627 0 1.9122 1.367 1.9941.603.0284.986.0554.986.4731 0 .3867-.357.3588-.575.3588-.52 0-3.176-.109-3.285-.109-.466 0-2.683.109-3.175.109-.219 0-.576.0279-.576-.3867 0-.3898.411-.4168.986-.4452 1.341-.1089 1.341-.8314 1.341-1.9941V5.7945zm-15.267.0283c0-1.1374 0-1.8838-1.37-1.9675-.601-.0283-.984-.0567-.984-.47 0-.3897.357-.3897.548-.3897.055 0 .081.0283.683.0553.603.0297 1.78.0567 4.105.0567h1.315c2.822 0 4.217-.027 4.954-.0567.715-.027.741-.0553.821-.0553.331 0 .331.221.331.8597v2.55c0 .1386 0 .4717-.276.4717-.301 0-.356-.1134-.848-1.1374-.326-.7212-.984-1.7736-4.87-1.7736-1.372 0-1.482.194-1.482 1.5795V9.564c0 .8867 0 1.1073 1.591 1.1073 3.036 0 3.285-.609 3.777-2.0765.136-.361.273-.4177.409-.4177.167 0 .302.085.302.3898 0 .3867-.19 3.2423-.19 3.8513 0 .1954.082 1.1641.082 1.3851 0 .1674 0 .5554-.33.5554-.218 0-.385-.1377-.52-.6644-.575-2.1349-1.341-2.1628-3.585-2.1628-1.314 0-1.536 0-1.536.8314v4.7677c0 1.9675.577 2.2718 2.877 2.2718 1.203 0 2.9 0 4.107-2.3568.492-.9687.543-1.079.791-1.079.245 0 .327.2489.327.4146 0 .3601-.299 2.1345-.382 3.1585-.026.5271-.302.8319-1.093.8319-1.397 0-3.312-.0275-4.9-.0554-1.563-.027-2.847-.0536-3.011-.0536h-.33c-1.122 0-1.807.0266-2.245.0536-.438.0279-.656.0554-.847.0554-.218 0-.575 0-.575-.4155 0-.388.41-.4164.984-.4713 1.37-.0824 1.37-.8314 1.37-1.9675V5.8228zm-10.26 11.6944c0 1.1361 0 1.8851 1.366 1.9675.577.0279.96.0549.96.4713 0 .4155-.356.4155-.575.4155-.904 0-2.326-.109-3.232-.109-.464 0-2.68.109-3.2006.109-.2197 0-.5736 0-.5736-.4155 0-.388.3806-.4164.9552-.4713 1.371-.0824 1.371-.8314 1.371-1.9121V4.6854c0-.7194-.22-.7194-.766-.7194-1.6442 0-3.4519 0-4.8449 2.6333-.2494.4416-.385.5537-.63.5537-.221 0-.3566-.194-.3566-.3597 0-.1387.0534-.306.0809-.4434l1.1222-3.908c.0827-.333.1654-.4987.4126-.4987.217 0 .2997.1373.3277.3884.1373.749.6295.776 1.2324.776h8.7847c2.82 0 2.957-.3614 3.149-.8597.083-.221.164-.388.384-.388.382 0 .382.443.382 1.1073l-.191 3.3827c-.026.5537-.081.8854-.438.8854-.137 0-.329-.027-.439-.609-.464-2.6603-1.806-2.6603-3.584-2.6603-1.561 0-1.697 0-1.697.9151v12.6361zm-15.7941 3.0212c-2.135 0-3.8588-.7494-4.3527-1.1077-.3006-.2224-.3277-.6104-.3277-1.3031 0-.1108 0-1.4972.0814-2.4929 0-.1134.0267-.5001.3565-.5001.2455 0 .3277.2228.3837.4704.5176 2.4663 2.3826 4.2123 4.323 4.2123 1.1501 0 3.2585-.8313 3.2585-3.0761 0-2.1602-1.8607-3.214-3.8317-4.1277-2.2181-1.0002-4.3807-2.0796-4.3807-5.0172 0-2.5508 1.918-4.7664 5.3931-4.7664 1.5881 0 3.2025.4434 3.5858.6374.329.194.329.442.329 2.8826 0 .609 0 .8314-.385.8314-.2713 0-.382-.167-.6563-1.0267-.3272-1.0795-.8212-2.6603-3.0931-2.6603-2.244 0-2.9842 1.5808-2.9842 2.6603 0 1.9688 1.5899 2.6616 3.7787 3.5762 1.5352.6644 4.4074 2.0229 4.4074 5.1545 0 3.0762-2.244 5.6531-5.8857 5.6531zM70.9419 5.8228c0-1.1374 0-1.8838-1.368-1.9675-.6016-.0283-.9866-.0567-.9866-.47 0-.3897.357-.3897.5469-.3897.0547 0 .0827.0283.686.0553.6029.0297 1.7793.0567 4.1059.0567h1.3138c2.8188 0 4.2158-.027 4.9556-.0567.7105-.027.7372-.0553.8199-.0553.3285 0 .3285.221.3285.8597v2.55c0 .1386 0 .4717-.2725.4717-.3006 0-.3553-.1134-.8492-1.1374-.3303-.7212-.9866-1.7736-4.8729-1.7736-1.3685 0-1.4761.194-1.4761 1.5795V9.564c0 .8867 0 1.1073 1.585 1.1073 3.0402 0 3.2852-.609 3.7774-2.0765.1357-.361.2743-.4177.4113-.4177.1636 0 .301.085.301.3898 0 .3867-.1921 3.2423-.1921 3.8513 0 .1954.0818 1.1641.0818 1.3851 0 .1674 0 .5554-.3277.5554-.2196 0-.3832-.1377-.5193-.6644-.5749-2.1349-1.3427-2.1628-3.5884-2.1628-1.312 0-1.529 0-1.529.8314v4.7677c0 1.9675.5749 2.2718 2.8735 2.2718 1.2031 0 2.9002 0 4.1051-2.3568.4921-.9687.5468-1.079.7931-1.079.2477 0 .329.2489.329.4146 0 .3601-.301 2.1345-.3832 3.1585-.0284.5271-.3015.8319-1.0973.8319-1.3934 0-3.3101-.0275-4.8969-.0554-1.561-.027-2.8455-.0536-3.0135-.0536h-.3259c-1.1218 0-1.8073.0266-2.2453.0536-.4379.0279-.6575.0554-.8492.0554-.2183 0-.5753 0-.5753-.4155 0-.388.4113-.4164.9866-.4713 1.368-.0824 1.368-.8314 1.368-1.9675V5.8228zM56.5513 10.173c0 .9718-.0001 1.0254 1.3667 1.0254.9866 0 3.6977 0 3.6977-3.4629 0-.9988-.3845-3.9634-3.7786-3.9634-1.2592 0-1.2858.664-1.2858 1.7448v4.6561zm-2.9296-4.3784c0-1.1357 0-1.8852-1.3418-1.9675-.6015-.0284-.9848-.055-.9848-.4417 0-.3897.1107-.3897 1.0115-.3897.2756 0 1.6157.112 1.946.112.7372 0 4.3776-.112 5.2006-.112 4.8431 0 5.253 3.3813 5.253 4.3531 0 3.2405-2.8188 3.9049-3.7493 4.1003.3557.221.6855.3867 1.3151 1.5511l2.6539 4.7665c.5486.97.9305 1.6641 1.6988 1.773.9026.1121 1.1222.1404 1.1222.5001 0 .3043-.2743.3318-.4647.3318-.3583 0-2.1363-.109-2.5479-.109-.2179 0-1.2312.109-1.4757.109-.494 0-.6047-.2499-.9052-.8319l-3.3132-6.3189c-.6016-1.1893-.7372-1.3-1.9683-1.3-.466 0-.5206.1643-.5206.6374v4.9874c0 1.1627-.0001 1.9122 1.3667 1.9941.6033.0284.9866.0554.9866.4731 0 .3867-.3566.3588-.5736.3588-.5219 0-3.1776-.109-3.2865-.109-.4659 0-2.6832.109-3.1745.109-.2196 0-.5749.0279-.5749-.3867 0-.3898.41-.4168.9848-.4452 1.3418-.1089 1.3418-.8314 1.3418-1.9941V5.7945zm-14.665 4.3784c0 .9718 0 1.0254 1.3681 1.0254.9866 0 3.6951 0 3.6951-3.4629 0-.9988-.3819-3.9634-3.776-3.9634-1.2609 0-1.2872.664-1.2872 1.7448v4.6561zm-2.9312-4.3784c0-1.1357 0-1.8852-1.3388-1.9675-.6015-.0284-.9861-.055-.9861-.4417 0-.3897.1103-.3897 1.0128-.3897.2743 0 1.6162.112 1.9434.112.7403 0 4.3789-.112 5.2014-.112 4.8436 0 5.2553 3.3813 5.2553 4.3531 0 3.2405-2.8193 3.9049-3.7511 4.1003.357.221.6855.3867 1.3164 1.5511l2.6539 4.7665c.546.97.9305 1.6641 1.6957 1.773.9052.1121 1.1222.1404 1.1222.5001 0 .3043-.273.3318-.4646.3318-.3553 0-2.1337-.109-2.5449-.109-.2184 0-1.2307.109-1.4788.109-.4922 0-.6029-.2499-.9021-.8319l-3.3132-6.3189c-.6016-1.1893-.7372-1.3-1.9701-1.3-.4642 0-.5202.1643-.5202.6374v4.9874c0 1.1627 0 1.9122 1.3681 1.9941.6033.0284.9866.0554.9866.4731 0 .3867-.357.3588-.5749.3588-.5206 0-3.1758-.109-3.2852-.109-.4659 0-2.6832.109-3.1758.109-.2183 0-.5749.0279-.5749-.3867 0-.3898.4113-.4168.9861-.4452 1.3388-.1089 1.3388-.8314 1.3388-1.9941V5.7945zM24.3127 3.5497c-3.832 0-5.8296 3.5767-5.8296 7.5113 0 4.4887 2.5991 8.7563 6.2956 8.7563 3.832 0 5.8297-4.296 5.8297-8.3147 0-3.2955-1.943-7.953-6.2957-7.953zm.2446 16.9887c-4.7876 0-9.3581-3.6037-9.3581-8.8954 0-4.9884 4.1317-8.813 9.4408-8.813 5.1192 0 9.2536 3.7963 9.2536 8.5636 0 5.3772-4.6813 9.1448-9.3363 9.1448zM2.7628 3.3171c0-1.334 0-2.2124-1.6074-2.3099C.4826.9435 0 .9107 0 .455 0 0 .4183 0 .6418 0c.0648 0 .098.0323.9013.0651.8338.031 2.4093.0638 5.5877.0638h.3863c3.3421 0 5.0111-.0328 5.8463-.0638.8676-.0328.9-.0651.9319-.0651.5136 0 .5456.1612.5456.5851v3.446c0 .0993 0 .6188-.354.6188-.3522 0-.5762-.4872-.6418-.651-.7695-1.7895-1.2845-2.8614-6.0064-2.8614-1.0911 0-1.6385.0664-1.6385 1.595v4.3243c0 1.7563.0967 1.7886.5124 1.8537.4838.0656 1.48.0656 1.9613.0656 2.6022 0 2.9566-.7481 3.4711-2.4065.0617-.2595.1903-.5218.5136-.5218.319 0 .3833.23.3833.5541 0 .455-.095 2.6674-.095 3.1546 0 .2932 0 .8456.0643 1.595l.1287 1.5282c0 .2267 0 .6161-.3863.6161-.3203 0-.4813-.2932-.5132-.5196-.0661-.1617-.2896-1.0737-.3544-1.2367-.4489-1.7566-2.5069-1.7566-3.3088-1.7566-2.377 0-2.377 0-2.377 1.5285v5.531c0 1.2681 0 2.2425 1.4792 2.3413.932.0328 1.3808.0642 1.3808.5524 0 .4553-.4183.4553-.6755.4553-1.0929 0-2.7943-.1289-3.8855-.1289-1.0604 0-2.7658.1289-3.8224.1289-.2585 0-.6768 0-.6768-.4877 0-.4558.4826-.4872 1.1554-.52 1.6074-.1311 1.6074-.9758 1.6074-2.3099V3.3171z" fill="#FEFEFE"/></g><path fill-rule="evenodd" clip-rule="evenodd" d="M144.109 5.1345v-.8327h.551c.279 0 .578.0607.578.3951 0 .4137-.306.4376-.646.4376h-.483zm0 .3473h.466l.701 1.164h.449l-.755-1.184c.391-.0496.689-.259.689-.741 0-.531-.312-.765-.937-.765h-1.015v2.69h.402v-1.164zm.49 2.1513c1.254 0 2.326-.9873 2.326-2.337 0-1.3402-1.072-2.3275-2.326-2.3275-1.269 0-2.34.9873-2.34 2.3276 0 1.3496 1.071 2.337 2.34 2.337zm-1.878-2.337c0-1.1064.823-1.9377 1.878-1.9377 1.04 0 1.863.8313 1.863 1.9378 0 1.1215-.823 1.9489-1.863 1.9489-1.055 0-1.878-.8274-1.878-1.949z" fill="#FEFEFE"/></svg>