<svg width="125" height="30" fill="none" xmlns="http://www.w3.org/2000/svg"><path fill-rule="evenodd" clip-rule="evenodd" d="M14.7691 0c-.6624 0-1.1993.5419-1.1993 1.21 0 .6686.5369 1.2102 1.1993 1.2102.6625 0 1.1994-.5416 1.1994-1.2102 0-.6681-.5369-1.21-1.1994-1.21zM14.7691 27.3438c-.6624 0-1.1993.5418-1.1993 1.2102 0 .6683.5369 1.2099 1.1993 1.2099.6625 0 1.1994-.5416 1.1994-1.2099 0-.6684-.5369-1.2102-1.1994-1.2102zM24.3592 6.4432c.6628 0 1.1996-.542 1.1996-1.21 0-.6686-.5368-1.2103-1.1996-1.2103-.6624 0-1.1993.5417-1.1993 1.2103 0 .668.5369 1.21 1.1993 1.21zM24.3592 23.334c-.6624 0-1.1993.5419-1.1993 1.2102 0 .6684.5369 1.21 1.1993 1.21.6628 0 1.1996-.5416 1.1996-1.21 0-.6683-.5368-1.2102-1.1996-1.2102zM5.1847 23.334c-.6625 0-1.1994.5419-1.1994 1.2102 0 .6684.5369 1.21 1.1994 1.21.6624 0 1.1993-.5416 1.1993-1.21 0-.6683-.5369-1.2102-1.1993-1.2102z" fill="#6FC100"/><mask id="a" maskUnits="userSpaceOnUse" x="0" y="13" width="3" height="4"><path d="M0 13.6938h2.3989v2.4202H0v-2.4202z" fill="#fff"/></mask><g mask="url(#a)"><path fill-rule="evenodd" clip-rule="evenodd" d="M2.3989 14.9038c0-.6683-.5371-1.21-1.1994-1.21-.6624 0-1.1996.5417-1.1996 1.21 0 .6684.5372 1.2102 1.1996 1.2102.6623 0 1.1994-.5418 1.1994-1.2102z" fill="#6FC100"/></g><path fill-rule="evenodd" clip-rule="evenodd" d="M28.341 13.6934c-.6625 0-1.1993.5418-1.1993 1.2099 0 .6686.5368 1.2103 1.1993 1.2103s1.1993-.5417 1.1993-1.2103c0-.6681-.5368-1.2099-1.1993-1.2099zM5.1847 6.411c.6624 0 1.1993-.542 1.1993-1.2103 0-.6684-.5369-1.21-1.1993-1.21-.6625 0-1.1994.5417-1.1994 1.21s.5369 1.2102 1.1994 1.2102zM14.7691 4.023c-.6624 0-1.1993.5418-1.1993 1.2102v4.8034h.0012c-.0002.0109-.0012.0215-.0012.0324 0 .6684.5369 1.21 1.1993 1.21.6625 0 1.1994-.5416 1.1994-1.21 0-.0109-.001-.0215-.0013-.0324h.0013V5.2332c0-.6684-.5369-1.2103-1.1994-1.2103zM14.7691 18.5303c-.6624 0-1.1993.5419-1.1993 1.2102v4.8036h.0012c-.0002.0107-.0012.0213-.0012.0322 0 .6684.5369 1.2103 1.1993 1.2103.6625 0 1.1994-.5419 1.1994-1.2103 0-.0109-.001-.0215-.0013-.0322h.0013v-4.8036c0-.6683-.5369-1.2102-1.1994-1.2102zM12.3747 13.6948H5.2168v.0015c-.0108-.0002-.0213-.0015-.0321-.0015-.6625 0-1.1996.5419-1.1996 1.21 0 .6686.5371 1.2102 1.1996 1.2102.0108 0 .0213-.0012.0321-.0015v.0015h7.1579c.6627 0 1.1993-.5416 1.1993-1.2102 0-.6681-.5366-1.21-1.1993-1.21zM24.3592 16.115c.6628 0 1.1996-.5419 1.1996-1.2102 0-.6684-.5368-1.21-1.1996-1.21h-7.1578v.0015c-.0108-.0002-.0213-.0015-.0321-.0015-.6625 0-1.1996.5416-1.1996 1.21 0 .6683.5371 1.2102 1.1996 1.2102.0108 0 .0213-.0012.0321-.0015v.0015h7.1578zM19.5649 11.2792c.6625 0 1.1993-.5416 1.1993-1.21 0-.0109-.0012-.0215-.0015-.0324h.0015V2.0769c0-.6683-.5368-1.2102-1.1993-1.2102-.6627 0-1.1996.5419-1.1996 1.2102v7.9599h.0015c-.0002.0109-.0015.0215-.0015.0324 0 .6684.5369 1.21 1.1996 1.21zM9.9459 18.5303c-.6625 0-1.1994.5419-1.1994 1.2102v7.9599h.0015c-.0002.0109-.0015.0212-.0015.0324 0 .6681.5369 1.21 1.1994 1.21.6627 0 1.1995-.5419 1.1995-1.21 0-.0112-.0012-.0215-.0015-.0324h.0015v-7.9599c0-.6683-.5368-1.2102-1.1995-1.2102zM2.0562 11.2469h7.8896v-.0016c.0108.0003.0213.0016.0321.0016.6625 0 1.1996-.5419 1.1996-1.2103 0-.6683-.5371-1.21-1.1996-1.21-.0108 0-.0213.0013-.0321.0016v-.0015H2.0562c-.6625 0-1.1994.5416-1.1994 1.2099 0 .6684.5369 1.2103 1.1994 1.2103zM27.4867 18.5303c-.0108 0-.0213.0012-.0321.0017v-.0017h-7.8897c-.6627 0-1.1998.5419-1.1998 1.2102 0 .6683.5371 1.21 1.1998 1.21h7.8897v-.0016c.0108.0003.0213.0016.0321.0016.6625 0 1.1994-.5417 1.1994-1.21s-.5369-1.2102-1.1994-1.2102zM9.978 6.4431c.6625 0 1.1993-.5419 1.1993-1.21 0-.0111-.001-.0215-.0012-.0324h.0012v-3.124c0-.6684-.5368-1.21-1.1993-1.21s-1.1993.5416-1.1993 1.21v3.124h.0015c-.0005.0109-.0015.0213-.0015.0324 0 .6681.5368 1.21 1.1993 1.21zM5.1824 20.9485c.6625 0 1.1994-.5419 1.1994-1.2102 0-.6684-.5369-1.21-1.1994-1.21H2.086v.0015c-.0108-.0002-.0211-.0015-.032-.0015-.6627 0-1.1998.5416-1.1998 1.21 0 .6683.5371 1.2102 1.1999 1.2102.0108 0 .021-.0013.0319-.0018v.0018h3.0965zM24.3583 11.2791c.0108 0 .0213-.0013.0321-.0015v.0015h3.0963c.6625 0 1.1996-.5416 1.1996-1.21 0-.6683-.5371-1.2102-1.1996-1.2102h-3.0963v.0018c-.0108-.0003-.0213-.0018-.0321-.0018-.6628 0-1.1994.5419-1.1994 1.2102 0 .6684.5366 1.21 1.1994 1.21zM19.5649 23.334c-.6627 0-1.1996.5419-1.1996 1.2102 0 .0109.0013.0213.0015.0322h-.0015v3.124c0 .6684.5369 1.21 1.1996 1.21.6625 0 1.1993-.5416 1.1993-1.21v-3.124h-.0015c.0003-.0109.0015-.0213.0015-.0322 0-.6683-.5368-1.2102-1.1993-1.2102z" fill="#6FC100"/><path fill-rule="evenodd" clip-rule="evenodd" d="M49.1152 8.4041c2.4863 0 4.695 1.7075 5.2515 4.0598l.0513.2172 2.481-.3373-.062-.2651c-.812-3.4632-4.0593-5.9766-7.7218-5.9766-4.88 0-8.4218 3.6874-8.4224 8.7681-.0112 2.5048.8591 4.7719 2.4501 6.3846 1.5312 1.5524 3.6525 2.407 5.9723 2.407 3.648 0 6.8855-2.3984 7.6989-5.7031l.0618-.2519-2.4238-.4778-.0608.22c-.6263 2.2659-2.8451 3.9105-5.2761 3.9105-3.4152 0-5.8942-2.7289-5.8942-6.4891 0-3.7467 2.479-6.4663 5.8942-6.4663zM65.1001 21.3656c-2.3361 0-3.9675-1.739-3.9675-4.2288 0-2.437 1.6686-4.2058 3.9675-4.2058 2.299 0 3.9673 1.7688 3.9673 4.2058 0 2.4503-1.6683 4.2288-3.9673 4.2288zm0-10.6239c-3.719 0-6.3167 2.6298-6.3167 6.3951 0 3.7789 2.5977 6.4178 6.3167 6.4178 3.6598 0 6.3168-2.699 6.3168-6.4178 0-3.7055-2.657-6.3951-6.3168-6.3951zM86.9592 6.2822c-.8142 0-1.4054.5794-1.4054 1.3778 0 .8214.5912 1.4178 1.4054 1.4178.8026 0 1.3852-.5964 1.3852-1.4178 0-.7984-.5826-1.3778-1.3852-1.3778zM85.7646 23.2718h2.369l.0103-12.0179h-2.3687l-.0106 12.0179zM97.2747 13.0134c2.2681 0 3.9783 1.8236 3.9783 4.2415 0 2.4714-1.6731 4.2651-3.9783 4.2651-2.2808 0-4.0012-1.8337-4.0012-4.2651 0-2.4179 1.7204-4.2415 4.0012-4.2415zm.2261-2.2078c-1.7575 0-3.2473.6892-4.1595 1.907V6.4663h-2.3692v16.8053h2.3692v-1.5103c.9238 1.272 2.3751 1.9662 4.1369 1.9662 3.5028 0 6.1438-2.7826 6.1438-6.4726 0-3.6765-2.631-6.4493-6.1212-6.4493zM73.3009 21.0057V6.4663h2.3648v13.9504c0 .7008.4248.8176.983.8176h.7514v2.0373h-1.2827c-1.488 0-2.8165-.5138-2.8165-2.2659zM79.3006 21.0057V6.4663h2.3647v13.9504c0 .7008.4248.8176.9831.8176h.7514v2.0373H82.117c-1.488 0-2.8164-.5138-2.8164-2.2659zM110.64 11.1348c-1.185 0-2.139.4901-2.793 1.3818v-1.2551h-2.324v12.0102h2.369v-6.4498c0-2.1416.858-3.3975 2.639-3.3975 1.151 0 1.687.2857 1.687.2857v-2.2803s-.474-.295-1.578-.295z" fill="#fff"/><mask id="b" maskUnits="userSpaceOnUse" x="113" y="10" width="12" height="14"><path d="M113.086 10.8535h11.876v12.8081h-11.876V10.8535z" fill="#fff"/></mask><g mask="url(#b)"><path fill-rule="evenodd" clip-rule="evenodd" d="M117.694 21.5904c-1.401 0-2.238-.5631-2.238-1.5062 0-1.3626 1.639-1.8576 3.012-2.0322l2.889-.3328v.7464c0 1.8398-1.506 3.1248-3.663 3.1248zm7.011-.331c-.543 0-.955-.1148-.979-.7631v-5.0852c0-2.7687-1.995-4.5576-5.083-4.5576-3.032 0-4.992 1.6637-4.992 4.2385v.2489h2.396l-.004-.253c-.008-.5345.157-.9788.49-1.3207.444-.4552 1.185-.7059 2.088-.7059 1.713 0 2.736.8615 2.736 2.3041v.2352l-2.945.361c-3.384.3867-5.326 1.9061-5.326 4.1682 0 2.1122 1.744 3.5318 4.337 3.5318 1.696 0 3.046-.6197 3.934-1.7977l.125.0028c.364 1.085 1.473 1.43 2.691 1.43h.789v-2.0373h-.257z" fill="#fff"/></g></svg>